<svg width="152" height="24" viewBox="0 0 152 24" fill="none" xmlns="http://www.w3.org/2000/svg">
<path d="M21.9646 10.7671L17.7459 14.4074L19.0312 19.8515C19.1021 20.147 19.0838 20.4569 18.9787 20.7421C18.8736 21.0272 18.6863 21.2748 18.4405 21.4536C18.1947 21.6324 17.9015 21.7343 17.5978 21.7465C17.2941 21.7587 16.9936 21.6806 16.7343 21.5221L11.9999 18.6083L7.26275 21.5221C7.00347 21.6797 6.70335 21.757 6.4002 21.7444C6.09704 21.7318 5.8044 21.6297 5.55913 21.4511C5.31386 21.2725 5.12692 21.0253 5.02185 20.7406C4.91679 20.456 4.89829 20.1466 4.96869 19.8515L6.25869 14.4074L2.03994 10.7671C1.81053 10.5688 1.64462 10.3074 1.56293 10.0154C1.48123 9.72336 1.48737 9.41376 1.58058 9.12522C1.67379 8.83669 1.84994 8.58201 2.08703 8.39299C2.32412 8.20397 2.61164 8.08899 2.91369 8.06241L8.44494 7.61616L10.5787 2.45241C10.6942 2.17099 10.8908 1.93027 11.1434 1.76085C11.3961 1.59143 11.6934 1.50098 11.9976 1.50098C12.3018 1.50098 12.5991 1.59143 12.8518 1.76085C13.1044 1.93027 13.301 2.17099 13.4165 2.45241L15.5493 7.61616L21.0806 8.06241C21.3832 8.088 21.6716 8.20234 21.9095 8.3911C22.1475 8.57986 22.3244 8.83464 22.4182 9.12352C22.512 9.41241 22.5185 9.72254 22.4368 10.0151C22.3551 10.3076 22.1889 10.5695 21.959 10.768L21.9646 10.7671Z" fill="#F59E0B"/>
<path d="M53.9646 10.7671L49.7459 14.4074L51.0312 19.8515C51.1021 20.147 51.0838 20.4569 50.9787 20.7421C50.8736 21.0272 50.6863 21.2748 50.4405 21.4536C50.1947 21.6324 49.9015 21.7343 49.5978 21.7465C49.2941 21.7587 48.9936 21.6806 48.7343 21.5221L43.9999 18.6083L39.2628 21.5221C39.0035 21.6797 38.7034 21.757 38.4002 21.7444C38.097 21.7318 37.8044 21.6297 37.5591 21.4511C37.3139 21.2725 37.1269 21.0253 37.0219 20.7406C36.9168 20.456 36.8983 20.1466 36.9687 19.8515L38.2587 14.4074L34.0399 10.7671C33.8105 10.5688 33.6446 10.3074 33.5629 10.0154C33.4812 9.72336 33.4874 9.41376 33.5806 9.12522C33.6738 8.83669 33.8499 8.58201 34.087 8.39299C34.3241 8.20397 34.6116 8.08899 34.9137 8.06241L40.4449 7.61616L42.5787 2.45241C42.6942 2.17099 42.8908 1.93027 43.1434 1.76085C43.3961 1.59143 43.6934 1.50098 43.9976 1.50098C44.3018 1.50098 44.5991 1.59143 44.8518 1.76085C45.1044 1.93027 45.301 2.17099 45.4165 2.45241L47.5493 7.61616L53.0806 8.06241C53.3832 8.088 53.6716 8.20234 53.9095 8.3911C54.1475 8.57986 54.3244 8.83464 54.4182 9.12352C54.512 9.41241 54.5185 9.72254 54.4368 10.0151C54.3551 10.3076 54.1889 10.5695 53.959 10.768L53.9646 10.7671Z" fill="#F59E0B"/>
<path d="M85.9646 10.7671L81.7459 14.4074L83.0312 19.8515C83.1021 20.147 83.0838 20.4569 82.9787 20.7421C82.8736 21.0272 82.6863 21.2748 82.4405 21.4536C82.1947 21.6324 81.9015 21.7343 81.5978 21.7465C81.2941 21.7587 80.9936 21.6806 80.7343 21.5221L75.9999 18.6083L71.2628 21.5221C71.0035 21.6797 70.7034 21.757 70.4002 21.7444C70.097 21.7318 69.8044 21.6297 69.5591 21.4511C69.3139 21.2725 69.1269 21.0253 69.0219 20.7406C68.9168 20.456 68.8983 20.1466 68.9687 19.8515L70.2587 14.4074L66.0399 10.7671C65.8105 10.5688 65.6446 10.3074 65.5629 10.0154C65.4812 9.72336 65.4874 9.41376 65.5806 9.12522C65.6738 8.83669 65.8499 8.58201 66.087 8.39299C66.3241 8.20397 66.6116 8.08899 66.9137 8.06241L72.4449 7.61616L74.5787 2.45241C74.6942 2.17099 74.8908 1.93027 75.1434 1.76085C75.3961 1.59143 75.6934 1.50098 75.9976 1.50098C76.3018 1.50098 76.5991 1.59143 76.8518 1.76085C77.1044 1.93027 77.301 2.17099 77.4165 2.45241L79.5493 7.61616L85.0806 8.06241C85.3832 8.088 85.6716 8.20234 85.9095 8.3911C86.1475 8.57986 86.3244 8.83464 86.4182 9.12352C86.512 9.41241 86.5185 9.72254 86.4368 10.0151C86.3551 10.3076 86.1889 10.5695 85.959 10.768L85.9646 10.7671Z" fill="#F59E0B"/>
<path d="M117.965 10.7671L113.746 14.4074L115.031 19.8515C115.102 20.147 115.084 20.4569 114.979 20.7421C114.874 21.0272 114.686 21.2748 114.441 21.4536C114.195 21.6324 113.901 21.7343 113.598 21.7465C113.294 21.7587 112.994 21.6806 112.734 21.5221L108 18.6083L103.263 21.5221C103.003 21.6797 102.703 21.757 102.4 21.7444C102.097 21.7318 101.804 21.6297 101.559 21.4511C101.314 21.2725 101.127 21.0253 101.022 20.7406C100.917 20.456 100.898 20.1466 100.969 19.8515L102.259 14.4074L98.0399 10.7671C97.8105 10.5688 97.6446 10.3074 97.5629 10.0154C97.4812 9.72336 97.4874 9.41376 97.5806 9.12522C97.6738 8.83669 97.8499 8.58201 98.087 8.39299C98.3241 8.20397 98.6116 8.08899 98.9137 8.06241L104.445 7.61616L106.579 2.45241C106.694 2.17099 106.891 1.93027 107.143 1.76085C107.396 1.59143 107.693 1.50098 107.998 1.50098C108.302 1.50098 108.599 1.59143 108.852 1.76085C109.104 1.93027 109.301 2.17099 109.417 2.45241L111.549 7.61616L117.081 8.06241C117.383 8.088 117.672 8.20234 117.91 8.3911C118.147 8.57986 118.324 8.83464 118.418 9.12352C118.512 9.41241 118.518 9.72254 118.437 10.0151C118.355 10.3076 118.189 10.5695 117.959 10.768L117.965 10.7671Z" fill="#F59E0B"/>
<path d="M150.423 9.118C150.33 8.82974 150.153 8.57568 149.915 8.38783C149.677 8.19998 149.389 8.08673 149.087 8.06237L143.555 7.61612L141.42 2.45143C141.304 2.17001 141.108 1.92929 140.855 1.75987C140.602 1.59046 140.305 1.5 140.001 1.5C139.697 1.5 139.399 1.59046 139.147 1.75987C138.894 1.92929 138.697 2.17001 138.582 2.45143L136.448 7.61518L130.914 8.06237C130.611 8.08797 130.323 8.20231 130.085 8.39106C129.847 8.57982 129.67 8.8346 129.576 9.12348C129.483 9.41237 129.476 9.72251 129.558 10.015C129.64 10.3076 129.806 10.5695 130.036 10.768L134.254 14.4083L132.969 19.8514C132.897 20.1471 132.915 20.4576 133.02 20.7432C133.124 21.0289 133.312 21.277 133.558 21.456C133.804 21.635 134.098 21.7369 134.402 21.7486C134.706 21.7604 135.007 21.6815 135.266 21.5221L140 18.6083L144.737 21.5221C144.997 21.6796 145.297 21.757 145.6 21.7444C145.903 21.7317 146.196 21.6297 146.441 21.451C146.686 21.2724 146.873 21.0252 146.978 20.7406C147.083 20.4559 147.102 20.1466 147.032 19.8514L145.742 14.4074L149.96 10.7671C150.192 10.5689 150.36 10.3064 150.442 10.0128C150.525 9.71927 150.518 9.40784 150.423 9.118ZM148.985 9.63081L144.42 13.5683C144.316 13.6581 144.238 13.7747 144.196 13.9055C144.153 14.0362 144.148 14.1761 144.18 14.3099L145.575 20.1974C145.578 20.2055 145.579 20.2147 145.576 20.223C145.573 20.2314 145.567 20.2383 145.559 20.2424C145.542 20.2555 145.537 20.2527 145.523 20.2424L140.393 17.0877C140.275 17.015 140.139 16.9766 140 16.9766C139.862 16.9766 139.726 17.015 139.607 17.0877L134.477 20.2442C134.463 20.2527 134.46 20.2555 134.442 20.2442C134.434 20.2402 134.428 20.2333 134.425 20.2249C134.422 20.2166 134.422 20.2074 134.426 20.1992L135.821 14.3117C135.853 14.178 135.847 14.0381 135.805 13.9073C135.763 13.7766 135.685 13.6599 135.581 13.5702L131.015 9.63268C131.004 9.62331 130.994 9.61487 131.003 9.58581C131.012 9.55675 131.02 9.5605 131.034 9.55862L137.027 9.07487C137.164 9.06308 137.296 9.01361 137.407 8.9319C137.518 8.85019 137.604 8.73941 137.657 8.61175L139.965 3.02331C139.972 3.00737 139.975 2.99987 139.997 2.99987C140.02 2.99987 140.023 3.00737 140.03 3.02331L142.344 8.61175C142.397 8.73946 142.484 8.85012 142.595 8.93152C142.707 9.01291 142.839 9.06187 142.977 9.073L148.969 9.55675C148.983 9.55675 148.992 9.55675 149 9.58393C149.009 9.61112 149 9.62143 148.985 9.63081Z" fill="#F59E0B"/>
</svg>
