<svg width="152" height="24" viewBox="0 0 152 24" fill="none" xmlns="http://www.w3.org/2000/svg">
<path d="M21.9646 10.7671L17.7459 14.4074L19.0312 19.8515C19.1021 20.147 19.0838 20.4569 18.9787 20.7421C18.8736 21.0272 18.6863 21.2748 18.4405 21.4536C18.1947 21.6324 17.9015 21.7343 17.5978 21.7465C17.2941 21.7587 16.9936 21.6806 16.7343 21.5221L11.9999 18.6083L7.26275 21.5221C7.00347 21.6797 6.70335 21.757 6.4002 21.7444C6.09704 21.7318 5.8044 21.6297 5.55913 21.4511C5.31386 21.2725 5.12692 21.0253 5.02185 20.7406C4.91679 20.456 4.89829 20.1466 4.96869 19.8515L6.25869 14.4074L2.03994 10.7671C1.81053 10.5688 1.64462 10.3074 1.56293 10.0154C1.48123 9.72336 1.48737 9.41376 1.58058 9.12522C1.67379 8.83669 1.84994 8.58201 2.08703 8.39299C2.32412 8.20397 2.61164 8.08899 2.91369 8.06241L8.44494 7.61616L10.5787 2.45241C10.6942 2.17099 10.8908 1.93027 11.1434 1.76085C11.3961 1.59143 11.6934 1.50098 11.9976 1.50098C12.3018 1.50098 12.5991 1.59143 12.8518 1.76085C13.1044 1.93027 13.301 2.17099 13.4165 2.45241L15.5493 7.61616L21.0806 8.06241C21.3832 8.088 21.6716 8.20234 21.9095 8.3911C22.1475 8.57986 22.3244 8.83464 22.4182 9.12352C22.512 9.41241 22.5185 9.72254 22.4368 10.0151C22.3551 10.3076 22.1889 10.5695 21.959 10.768L21.9646 10.7671Z" fill="#F59E0B"/>
<path d="M53.9646 10.7671L49.7459 14.4074L51.0312 19.8515C51.1021 20.147 51.0838 20.4569 50.9787 20.7421C50.8736 21.0272 50.6863 21.2748 50.4405 21.4536C50.1947 21.6324 49.9015 21.7343 49.5978 21.7465C49.2941 21.7587 48.9936 21.6806 48.7343 21.5221L43.9999 18.6083L39.2628 21.5221C39.0035 21.6797 38.7034 21.757 38.4002 21.7444C38.097 21.7318 37.8044 21.6297 37.5591 21.4511C37.3139 21.2725 37.1269 21.0253 37.0219 20.7406C36.9168 20.456 36.8983 20.1466 36.9687 19.8515L38.2587 14.4074L34.0399 10.7671C33.8105 10.5688 33.6446 10.3074 33.5629 10.0154C33.4812 9.72336 33.4874 9.41376 33.5806 9.12522C33.6738 8.83669 33.8499 8.58201 34.087 8.39299C34.3241 8.20397 34.6116 8.08899 34.9137 8.06241L40.4449 7.61616L42.5787 2.45241C42.6942 2.17099 42.8908 1.93027 43.1434 1.76085C43.3961 1.59143 43.6934 1.50098 43.9976 1.50098C44.3018 1.50098 44.5991 1.59143 44.8518 1.76085C45.1044 1.93027 45.301 2.17099 45.4165 2.45241L47.5493 7.61616L53.0806 8.06241C53.3832 8.088 53.6716 8.20234 53.9095 8.3911C54.1475 8.57986 54.3244 8.83464 54.4182 9.12352C54.512 9.41241 54.5185 9.72254 54.4368 10.0151C54.3551 10.3076 54.1889 10.5695 53.959 10.768L53.9646 10.7671Z" fill="#F59E0B"/>
<path d="M86.4232 9.118C86.3294 8.82974 86.1524 8.57568 85.9145 8.38783C85.6766 8.19998 85.3885 8.08673 85.0863 8.06237L79.5551 7.61612L77.4194 2.45143C77.3039 2.17001 77.1074 1.92929 76.8547 1.75987C76.6021 1.59046 76.3047 1.5 76.0005 1.5C75.6963 1.5 75.399 1.59046 75.1463 1.75987C74.8937 1.92929 74.6971 2.17001 74.5816 2.45143L72.4479 7.61518L66.9138 8.06237C66.6112 8.08797 66.3228 8.20231 66.0849 8.39106C65.8469 8.57982 65.6699 8.8346 65.5762 9.12348C65.4824 9.41237 65.4759 9.7225 65.5576 10.015C65.6393 10.3076 65.8055 10.5695 66.0354 10.768L70.2541 14.4083L68.9688 19.8514C68.8979 20.147 68.9162 20.4569 69.0213 20.742C69.1264 21.0272 69.3137 21.2748 69.5595 21.4536C69.8053 21.6323 70.0985 21.7343 70.4022 21.7465C70.7059 21.7586 71.0064 21.6806 71.2657 21.5221L76.0001 18.6083L80.7373 21.5221C80.9965 21.6796 81.2967 21.757 81.5998 21.7444C81.903 21.7317 82.1956 21.6297 82.4409 21.451C82.6861 21.2724 82.8731 21.0252 82.9782 20.7406C83.0832 20.4559 83.1017 20.1466 83.0313 19.8514L81.7413 14.4074L85.9601 10.7671C86.1918 10.5689 86.3595 10.3064 86.442 10.0128C86.5244 9.71927 86.5179 9.40784 86.4232 9.118ZM84.9851 9.63081L80.4194 13.5683C80.3153 13.6581 80.2379 13.7747 80.1955 13.9055C80.1532 14.0362 80.1476 14.1761 80.1794 14.3099L81.5744 20.1974C81.578 20.2055 81.5784 20.2147 81.5754 20.223C81.5725 20.2314 81.5664 20.2383 81.5585 20.2424C81.5416 20.2555 81.5369 20.2527 81.5229 20.2424L76.3929 17.0877C76.2746 17.0155 76.1386 16.9776 76.0001 16.978V2.99987C76.0226 2.99987 76.0254 3.00737 76.0329 3.02424L78.3438 8.61174C78.3966 8.73946 78.4836 8.85012 78.5952 8.93152C78.7069 9.01291 78.8389 9.06187 78.9766 9.07299L84.9682 9.55675C84.9832 9.55675 84.9916 9.55675 85.0001 9.58393C85.0085 9.61112 85.0001 9.62143 84.9851 9.63081Z" fill="#F59E0B"/>
<path d="M118.423 9.118C118.33 8.82974 118.153 8.57568 117.915 8.38783C117.677 8.19998 117.389 8.08673 117.087 8.06237L111.555 7.61612L109.42 2.45143C109.304 2.17001 109.108 1.92929 108.855 1.75987C108.602 1.59046 108.305 1.5 108.001 1.5C107.697 1.5 107.399 1.59046 107.147 1.75987C106.894 1.92929 106.697 2.17001 106.582 2.45143L104.448 7.61518L98.9141 8.06237C98.6114 8.08797 98.323 8.20231 98.0851 8.39106C97.8471 8.57982 97.6702 8.8346 97.5764 9.12348C97.4826 9.41237 97.4761 9.72251 97.5578 10.015C97.6395 10.3076 97.8057 10.5695 98.0356 10.768L102.254 14.4083L100.969 19.8514C100.897 20.1471 100.915 20.4576 101.02 20.7432C101.124 21.0289 101.312 21.277 101.558 21.456C101.804 21.635 102.098 21.7369 102.402 21.7486C102.706 21.7604 103.007 21.6815 103.266 21.5221L108 18.6083L112.737 21.5221C112.997 21.6796 113.297 21.757 113.6 21.7444C113.903 21.7317 114.196 21.6297 114.441 21.451C114.686 21.2724 114.873 21.0252 114.978 20.7406C115.083 20.4559 115.102 20.1466 115.032 19.8514L113.742 14.4074L117.96 10.7671C118.192 10.5689 118.36 10.3064 118.442 10.0128C118.525 9.71927 118.518 9.40784 118.423 9.118ZM116.985 9.63081L112.42 13.5683C112.316 13.6581 112.238 13.7747 112.196 13.9055C112.153 14.0362 112.148 14.1761 112.18 14.3099L113.575 20.1974C113.578 20.2055 113.579 20.2147 113.576 20.223C113.573 20.2314 113.567 20.2383 113.559 20.2424C113.542 20.2555 113.537 20.2527 113.523 20.2424L108.393 17.0877C108.275 17.015 108.139 16.9766 108 16.9766C107.862 16.9766 107.726 17.015 107.607 17.0877L102.477 20.2442C102.463 20.2527 102.46 20.2555 102.442 20.2442C102.434 20.2402 102.428 20.2333 102.425 20.2249C102.422 20.2166 102.422 20.2074 102.426 20.1992L103.821 14.3117C103.853 14.178 103.847 14.0381 103.805 13.9073C103.763 13.7766 103.685 13.6599 103.581 13.5702L99.0153 9.63268C99.0041 9.62331 98.9937 9.61487 99.0031 9.58581C99.0125 9.55675 99.02 9.5605 99.0341 9.55862L105.027 9.07487C105.164 9.06308 105.296 9.01361 105.407 8.9319C105.518 8.85019 105.604 8.73941 105.657 8.61175L107.965 3.02331C107.972 3.00737 107.975 2.99987 107.997 2.99987C108.02 2.99987 108.023 3.00737 108.03 3.02331L110.344 8.61175C110.397 8.73946 110.484 8.85012 110.595 8.93152C110.707 9.01291 110.839 9.06187 110.977 9.073L116.969 9.55675C116.983 9.55675 116.992 9.55675 117 9.58393C117.009 9.61112 117 9.62143 116.985 9.63081Z" fill="#F59E0B"/>
<path d="M150.423 9.118C150.33 8.82974 150.153 8.57568 149.915 8.38783C149.677 8.19998 149.389 8.08673 149.087 8.06237L143.555 7.61612L141.42 2.45143C141.304 2.17001 141.108 1.92929 140.855 1.75987C140.602 1.59046 140.305 1.5 140.001 1.5C139.697 1.5 139.399 1.59046 139.147 1.75987C138.894 1.92929 138.697 2.17001 138.582 2.45143L136.448 7.61518L130.914 8.06237C130.611 8.08797 130.323 8.20231 130.085 8.39106C129.847 8.57982 129.67 8.8346 129.576 9.12348C129.483 9.41237 129.476 9.72251 129.558 10.015C129.64 10.3076 129.806 10.5695 130.036 10.768L134.254 14.4083L132.969 19.8514C132.897 20.1471 132.915 20.4576 133.02 20.7432C133.124 21.0289 133.312 21.277 133.558 21.456C133.804 21.635 134.098 21.7369 134.402 21.7486C134.706 21.7604 135.007 21.6815 135.266 21.5221L140 18.6083L144.737 21.5221C144.997 21.6796 145.297 21.757 145.6 21.7444C145.903 21.7317 146.196 21.6297 146.441 21.451C146.686 21.2724 146.873 21.0252 146.978 20.7406C147.083 20.4559 147.102 20.1466 147.032 19.8514L145.742 14.4074L149.96 10.7671C150.192 10.5689 150.36 10.3064 150.442 10.0128C150.525 9.71927 150.518 9.40784 150.423 9.118ZM148.985 9.63081L144.42 13.5683C144.316 13.6581 144.238 13.7747 144.196 13.9055C144.153 14.0362 144.148 14.1761 144.18 14.3099L145.575 20.1974C145.578 20.2055 145.579 20.2147 145.576 20.223C145.573 20.2314 145.567 20.2383 145.559 20.2424C145.542 20.2555 145.537 20.2527 145.523 20.2424L140.393 17.0877C140.275 17.015 140.139 16.9766 140 16.9766C139.862 16.9766 139.726 17.015 139.607 17.0877L134.477 20.2442C134.463 20.2527 134.46 20.2555 134.442 20.2442C134.434 20.2402 134.428 20.2333 134.425 20.2249C134.422 20.2166 134.422 20.2074 134.426 20.1992L135.821 14.3117C135.853 14.178 135.847 14.0381 135.805 13.9073C135.763 13.7766 135.685 13.6599 135.581 13.5702L131.015 9.63268C131.004 9.62331 130.994 9.61487 131.003 9.58581C131.012 9.55675 131.02 9.5605 131.034 9.55862L137.027 9.07487C137.164 9.06308 137.296 9.01361 137.407 8.9319C137.518 8.85019 137.604 8.73941 137.657 8.61175L139.965 3.02331C139.972 3.00737 139.975 2.99987 139.997 2.99987C140.02 2.99987 140.023 3.00737 140.03 3.02331L142.344 8.61175C142.397 8.73946 142.484 8.85012 142.595 8.93152C142.707 9.01291 142.839 9.06187 142.977 9.073L148.969 9.55675C148.983 9.55675 148.992 9.55675 149 9.58393C149.009 9.61112 149 9.62143 148.985 9.63081Z" fill="#F59E0B"/>
</svg>
